<svg xmlns="http://www.w3.org/2000/svg" xmlns:xlink="http://www.w3.org/1999/xlink" width="666pt" height="212pt" viewBox="0.00 0.00 665.80 212.20">
<defs>
        <pattern id="warning" width="12" height="12" patternUnits="userSpaceOnUse" patternTransform="rotate(45 50 50)">
          <line stroke="rgba(192,192,0,.15)" stroke-width="6px" x1="3" x2="3" y2="12"></line>
          <line stroke="rgba(0,0,0,.15)" stroke-width="6px" x1="9" x2="9" y2="12"></line>
        </pattern>
     </defs><g id="graph0" class="graph" transform="scale(1 1) rotate(0) translate(4 208.2)">
<polygon fill="white" stroke="transparent" points="-4,4 -4,-208.2 661.8,-208.2 661.8,4 -4,4"></polygon>
<!-- @wireapp/core@17.0.11 -->
<g id="node1" class="node module-_wireapp_core maintainer-wireapp_owner maintainer-lipis maintainer-ffflorian maintainer-wireapp_member maintainer-yserz maintainer-andylnd maintainer-bennycode license-gpl_3_0" data-module="@wireapp/core@17.0.11">
<title>@wireapp/core@17.0.11</title>
<path fill="none" stroke="black" d="M110.04,-111.3C110.04,-111.3 6.63,-111.3 6.63,-111.3 3.4,-111.3 0.16,-108.07 0.16,-104.83 0.16,-104.83 0.16,-98.37 0.16,-98.37 0.16,-95.13 3.4,-91.9 6.63,-91.9 6.63,-91.9 110.04,-91.9 110.04,-91.9 113.27,-91.9 116.51,-95.13 116.51,-98.37 116.51,-98.37 116.51,-104.83 116.51,-104.83 116.51,-108.07 113.27,-111.3 110.04,-111.3"></path>
<text text-anchor="middle" x="58.33" y="-98.3" font-family="Roboto Condensed, sans-serif" font-size="11.00">@wireapp/core@17.0.11</text>
</g>
<!-- @wireapp/api&#45;client@12.1.4 -->
<g id="node2" class="node module-_wireapp_api_client maintainer-wireapp_owner maintainer-lipis maintainer-ffflorian maintainer-wireapp_member maintainer-yserz maintainer-andylnd maintainer-bennycode license-gpl_3_0" data-module="@wireapp/api-client@12.1.4">
<title>@wireapp/api-client@12.1.4</title>
<path fill="none" stroke="black" d="M284.16,-148.3C284.16,-148.3 163.53,-148.3 163.53,-148.3 160.29,-148.3 157.06,-145.07 157.06,-141.83 157.06,-141.83 157.06,-135.37 157.06,-135.37 157.06,-132.13 160.29,-128.9 163.53,-128.9 163.53,-128.9 284.16,-128.9 284.16,-128.9 287.39,-128.9 290.62,-132.13 290.62,-135.37 290.62,-135.37 290.62,-141.83 290.62,-141.83 290.62,-145.07 287.39,-148.3 284.16,-148.3"></path>
<text text-anchor="middle" x="223.84" y="-135.3" font-family="Roboto Condensed, sans-serif" font-size="11.00">@wireapp/api-client@12.1.4</text>
</g>
<!-- @wireapp/core@17.0.11&#45;&gt;@wireapp/api&#45;client@12.1.4 -->
<g id="edge1" class="edge">
<title>@wireapp/core@17.0.11-&gt;@wireapp/api-client@12.1.4</title>
<path fill="none" stroke="black" d="M101.87,-111.22C122.79,-115.96 148.21,-121.71 170.33,-126.72"></path>
<polygon fill="black" stroke="black" points="169.71,-130.17 180.24,-128.96 171.26,-123.34 169.71,-130.17"></polygon>
</g>
<!-- @wireapp/cryptobox@12.2.48 -->
<g id="node3" class="node module-_wireapp_cryptobox maintainer-wireapp_owner maintainer-lipis maintainer-ffflorian maintainer-wireapp_member maintainer-yserz maintainer-andylnd maintainer-bennycode license-gpl_3_0" data-module="@wireapp/cryptobox@12.2.48">
<title>@wireapp/cryptobox@12.2.48</title>
<path fill="none" stroke="black" d="M288.72,-93.3C288.72,-93.3 158.96,-93.3 158.96,-93.3 155.73,-93.3 152.5,-90.07 152.5,-86.83 152.5,-86.83 152.5,-80.37 152.5,-80.37 152.5,-77.13 155.73,-73.9 158.96,-73.9 158.96,-73.9 288.72,-73.9 288.72,-73.9 291.95,-73.9 295.19,-77.13 295.19,-80.37 295.19,-80.37 295.19,-86.83 295.19,-86.83 295.19,-90.07 291.95,-93.3 288.72,-93.3"></path>
<text text-anchor="middle" x="223.84" y="-80.3" font-family="Roboto Condensed, sans-serif" font-size="11.00">@wireapp/cryptobox@12.2.48</text>
</g>
<!-- @wireapp/core@17.0.11&#45;&gt;@wireapp/cryptobox@12.2.48 -->
<g id="edge2" class="edge">
<title>@wireapp/core@17.0.11-&gt;@wireapp/cryptobox@12.2.48</title>
<path fill="none" stroke="black" d="M116.52,-95.3C124.86,-94.39 133.58,-93.43 142.28,-92.47"></path>
<polygon fill="black" stroke="black" points="142.9,-95.92 152.45,-91.35 142.13,-88.96 142.9,-95.92"></polygon>
</g>
<!-- @wireapp/protocol&#45;messaging@1.28.0 -->
<g id="node4" class="node module-_wireapp_protocol_messaging maintainer-wireapp_owner maintainer-lipis maintainer-ffflorian maintainer-wireapp_member maintainer-yserz maintainer-andylnd maintainer-bennycode license-gpl_3_0" data-module="@wireapp/protocol-messaging@1.28.0">
<title>@wireapp/protocol-messaging@1.28.0</title>
<path fill="none" stroke="black" d="M503.54,-204.3C503.54,-204.3 337.48,-204.3 337.48,-204.3 334.25,-204.3 331.01,-201.07 331.01,-197.83 331.01,-197.83 331.01,-191.37 331.01,-191.37 331.01,-188.13 334.25,-184.9 337.48,-184.9 337.48,-184.9 503.54,-184.9 503.54,-184.9 506.78,-184.9 510.01,-188.13 510.01,-191.37 510.01,-191.37 510.01,-197.83 510.01,-197.83 510.01,-201.07 506.78,-204.3 503.54,-204.3"></path>
<text text-anchor="middle" x="420.51" y="-191.3" font-family="Roboto Condensed, sans-serif" font-size="11.00">@wireapp/protocol-messaging@1.28.0</text>
</g>
<!-- @wireapp/core@17.0.11&#45;&gt;@wireapp/protocol&#45;messaging@1.28.0 -->
<g id="edge3" class="edge">
<title>@wireapp/core@17.0.11-&gt;@wireapp/protocol-messaging@1.28.0</title>
<path fill="none" stroke="black" d="M71.79,-111.35C88.95,-124.22 121.31,-146.54 152.67,-157.6 206.43,-176.56 269.48,-185.85 320.79,-190.39"></path>
<polygon fill="black" stroke="black" points="320.63,-193.89 330.89,-191.23 321.22,-186.91 320.63,-193.89"></polygon>
</g>
<!-- @wireapp/store&#45;engine@4.5.24 -->
<g id="node5" class="node module-_wireapp_store_engine maintainer-wireapp_owner maintainer-lipis maintainer-ffflorian maintainer-wireapp_member maintainer-yserz maintainer-andylnd maintainer-bennycode license-gpl_3_0" data-module="@wireapp/store-engine@4.5.24">
<title>@wireapp/store-engine@4.5.24</title>
<path fill="none" stroke="black" d="M487.15,-19.3C487.15,-19.3 353.87,-19.3 353.87,-19.3 350.64,-19.3 347.41,-16.07 347.41,-12.83 347.41,-12.83 347.41,-6.37 347.41,-6.37 347.41,-3.13 350.64,0.1 353.87,0.1 353.87,0.1 487.15,0.1 487.15,0.1 490.39,0.1 493.62,-3.13 493.62,-6.37 493.62,-6.37 493.62,-12.83 493.62,-12.83 493.62,-16.07 490.39,-19.3 487.15,-19.3"></path>
<text text-anchor="middle" x="420.51" y="-6.3" font-family="Roboto Condensed, sans-serif" font-size="11.00">@wireapp/store-engine@4.5.24</text>
</g>
<!-- @wireapp/core@17.0.11&#45;&gt;@wireapp/store&#45;engine@4.5.24 -->
<g id="edge4" class="edge">
<title>@wireapp/core@17.0.11-&gt;@wireapp/store-engine@4.5.24</title>
<path fill="none" stroke="black" d="M80.83,-91.84C99.51,-83.67 127.46,-72.15 152.67,-64.6 230.22,-41.37 251.72,-43.89 331.01,-27.6 340.92,-25.57 351.45,-23.41 361.67,-21.33"></path>
<polygon fill="black" stroke="black" points="362.64,-24.71 371.74,-19.28 361.24,-17.85 362.64,-24.71"></polygon>
</g>
<!-- @wireapp/api&#45;client@12.1.4&#45;&gt;@wireapp/protocol&#45;messaging@1.28.0 -->
<g id="edge7" class="edge">
<title>@wireapp/api-client@12.1.4-&gt;@wireapp/protocol-messaging@1.28.0</title>
<path fill="none" stroke="black" d="M248.98,-148.36C270.3,-156.7 302.35,-168.6 331.01,-176.6 339.05,-178.84 347.56,-180.93 356.01,-182.83"></path>
<polygon fill="black" stroke="black" points="355.35,-186.27 365.87,-184.97 356.84,-179.43 355.35,-186.27"></polygon>
</g>
<!-- @wireapp/commons@4.0.2 -->
<g id="node6" class="node module-_wireapp_commons maintainer-wireapp_owner maintainer-lipis maintainer-ffflorian maintainer-wireapp_member maintainer-yserz maintainer-andylnd maintainer-bennycode license-gpl_3_0" data-module="@wireapp/commons@4.0.2">
<title>@wireapp/commons@4.0.2</title>
<path fill="none" stroke="black" d="M478.56,-167.3C478.56,-167.3 362.46,-167.3 362.46,-167.3 359.23,-167.3 356,-164.07 356,-160.83 356,-160.83 356,-154.37 356,-154.37 356,-151.13 359.23,-147.9 362.46,-147.9 362.46,-147.9 478.56,-147.9 478.56,-147.9 481.8,-147.9 485.03,-151.13 485.03,-154.37 485.03,-154.37 485.03,-160.83 485.03,-160.83 485.03,-164.07 481.8,-167.3 478.56,-167.3"></path>
<text text-anchor="middle" x="420.51" y="-154.3" font-family="Roboto Condensed, sans-serif" font-size="11.00">@wireapp/commons@4.0.2</text>
</g>
<!-- @wireapp/api&#45;client@12.1.4&#45;&gt;@wireapp/commons@4.0.2 -->
<g id="edge5" class="edge">
<title>@wireapp/api-client@12.1.4-&gt;@wireapp/commons@4.0.2</title>
<path fill="none" stroke="black" d="M290.75,-145.03C308.44,-146.76 327.69,-148.64 345.78,-150.4"></path>
<polygon fill="black" stroke="black" points="345.69,-153.91 355.98,-151.4 346.37,-146.94 345.69,-153.91"></polygon>
</g>
<!-- @wireapp/priority&#45;queue@1.6.20 -->
<g id="node8" class="node module-_wireapp_priority_queue maintainer-wireapp_owner maintainer-lipis maintainer-ffflorian maintainer-wireapp_member maintainer-yserz maintainer-andylnd maintainer-bennycode license-gpl_3_0" data-module="@wireapp/priority-queue@1.6.20">
<title>@wireapp/priority-queue@1.6.20</title>
<path fill="none" stroke="black" d="M491.71,-130.3C491.71,-130.3 349.32,-130.3 349.32,-130.3 346.08,-130.3 342.85,-127.07 342.85,-123.83 342.85,-123.83 342.85,-117.37 342.85,-117.37 342.85,-114.13 346.08,-110.9 349.32,-110.9 349.32,-110.9 491.71,-110.9 491.71,-110.9 494.94,-110.9 498.18,-114.13 498.18,-117.37 498.18,-117.37 498.18,-123.83 498.18,-123.83 498.18,-127.07 494.94,-130.3 491.71,-130.3"></path>
<text text-anchor="middle" x="420.51" y="-117.3" font-family="Roboto Condensed, sans-serif" font-size="11.00">@wireapp/priority-queue@1.6.20</text>
</g>
<!-- @wireapp/api&#45;client@12.1.4&#45;&gt;@wireapp/priority&#45;queue@1.6.20 -->
<g id="edge6" class="edge">
<title>@wireapp/api-client@12.1.4-&gt;@wireapp/priority-queue@1.6.20</title>
<path fill="none" stroke="black" d="M290.75,-132.51C304.24,-131.26 318.63,-129.93 332.73,-128.62"></path>
<polygon fill="black" stroke="black" points="333.29,-132.09 342.92,-127.68 332.64,-125.12 333.29,-132.09"></polygon>
</g>
<!-- @wireapp/cryptobox@12.2.48&#45;&gt;@wireapp/store&#45;engine@4.5.24 -->
<g id="edge11" class="edge">
<title>@wireapp/cryptobox@12.2.48-&gt;@wireapp/store-engine@4.5.24</title>
<path fill="none" stroke="black" d="M240.03,-73.8C260.09,-61.28 296.87,-39.8 331.01,-27.6 337.26,-25.37 343.87,-23.38 350.53,-21.62"></path>
<polygon fill="black" stroke="black" points="351.45,-25 360.32,-19.2 349.77,-18.21 351.45,-25"></polygon>
</g>
<!-- @wireapp/lru&#45;cache@3.7.11 -->
<g id="node7" class="node module-_wireapp_lru_cache maintainer-wireapp_owner maintainer-lipis maintainer-ffflorian maintainer-wireapp_member maintainer-yserz maintainer-andylnd maintainer-bennycode license-gpl_3_0" data-module="@wireapp/lru-cache@3.7.11">
<title>@wireapp/lru-cache@3.7.11</title>
<path fill="none" stroke="black" d="M480.7,-93.3C480.7,-93.3 360.33,-93.3 360.33,-93.3 357.09,-93.3 353.86,-90.07 353.86,-86.83 353.86,-86.83 353.86,-80.37 353.86,-80.37 353.86,-77.13 357.09,-73.9 360.33,-73.9 360.33,-73.9 480.7,-73.9 480.7,-73.9 483.93,-73.9 487.17,-77.13 487.17,-80.37 487.17,-80.37 487.17,-86.83 487.17,-86.83 487.17,-90.07 483.93,-93.3 480.7,-93.3"></path>
<text text-anchor="middle" x="420.51" y="-80.3" font-family="Roboto Condensed, sans-serif" font-size="11.00">@wireapp/lru-cache@3.7.11</text>
</g>
<!-- @wireapp/cryptobox@12.2.48&#45;&gt;@wireapp/lru&#45;cache@3.7.11 -->
<g id="edge8" class="edge">
<title>@wireapp/cryptobox@12.2.48-&gt;@wireapp/lru-cache@3.7.11</title>
<path fill="none" stroke="black" d="M295.12,-83.6C310.85,-83.6 327.59,-83.6 343.54,-83.6"></path>
<polygon fill="black" stroke="black" points="343.88,-87.1 353.88,-83.6 343.88,-80.1 343.88,-87.1"></polygon>
</g>
<!-- @wireapp/cryptobox@12.2.48&#45;&gt;@wireapp/priority&#45;queue@1.6.20 -->
<g id="edge9" class="edge">
<title>@wireapp/cryptobox@12.2.48-&gt;@wireapp/priority-queue@1.6.20</title>
<path fill="none" stroke="black" d="M275.48,-93.22C300.95,-98.07 332.02,-103.97 358.77,-109.05"></path>
<polygon fill="black" stroke="black" points="358.31,-112.53 368.79,-110.96 359.62,-105.65 358.31,-112.53"></polygon>
</g>
<!-- @wireapp/proteus@9.8.34 -->
<g id="node9" class="node module-_wireapp_proteus maintainer-wireapp_owner maintainer-lipis maintainer-ffflorian maintainer-wireapp_member maintainer-yserz maintainer-andylnd maintainer-bennycode license-gpl_3_0" data-module="@wireapp/proteus@9.8.34">
<title>@wireapp/proteus@9.8.34</title>
<path fill="none" stroke="black" d="M476.17,-56.3C476.17,-56.3 364.86,-56.3 364.86,-56.3 361.62,-56.3 358.39,-53.07 358.39,-49.83 358.39,-49.83 358.39,-43.37 358.39,-43.37 358.39,-40.13 361.62,-36.9 364.86,-36.9 364.86,-36.9 476.17,-36.9 476.17,-36.9 479.4,-36.9 482.64,-40.13 482.64,-43.37 482.64,-43.37 482.64,-49.83 482.64,-49.83 482.64,-53.07 479.4,-56.3 476.17,-56.3"></path>
<text text-anchor="middle" x="420.51" y="-43.3" font-family="Roboto Condensed, sans-serif" font-size="11.00">@wireapp/proteus@9.8.34</text>
</g>
<!-- @wireapp/cryptobox@12.2.48&#45;&gt;@wireapp/proteus@9.8.34 -->
<g id="edge10" class="edge">
<title>@wireapp/cryptobox@12.2.48-&gt;@wireapp/proteus@9.8.34</title>
<path fill="none" stroke="black" d="M275.48,-73.98C300.95,-69.13 332.02,-63.23 358.77,-58.15"></path>
<polygon fill="black" stroke="black" points="359.62,-61.55 368.79,-56.24 358.31,-54.67 359.62,-61.55"></polygon>
</g>
<!-- @wireapp/cbor@4.6.25 -->
<g id="node10" class="node module-_wireapp_cbor maintainer-wireapp_owner maintainer-lipis maintainer-ffflorian maintainer-wireapp_member maintainer-yserz maintainer-andylnd maintainer-bennycode license-gpl_3_0" data-module="@wireapp/cbor@4.6.25">
<title>@wireapp/cbor@4.6.25</title>
<path fill="none" stroke="black" d="M651.23,-56.3C651.23,-56.3 552.59,-56.3 552.59,-56.3 549.35,-56.3 546.12,-53.07 546.12,-49.83 546.12,-49.83 546.12,-43.37 546.12,-43.37 546.12,-40.13 549.35,-36.9 552.59,-36.9 552.59,-36.9 651.23,-36.9 651.23,-36.9 654.46,-36.9 657.69,-40.13 657.69,-43.37 657.69,-43.37 657.69,-49.83 657.69,-49.83 657.69,-53.07 654.46,-56.3 651.23,-56.3"></path>
<text text-anchor="middle" x="601.91" y="-43.3" font-family="Roboto Condensed, sans-serif" font-size="11.00">@wireapp/cbor@4.6.25</text>
</g>
<!-- @wireapp/proteus@9.8.34&#45;&gt;@wireapp/cbor@4.6.25 -->
<g id="edge12" class="edge">
<title>@wireapp/proteus@9.8.34-&gt;@wireapp/cbor@4.6.25</title>
<path fill="none" stroke="black" d="M482.75,-46.6C499.89,-46.6 518.57,-46.6 535.92,-46.6"></path>
<polygon fill="black" stroke="black" points="535.96,-50.1 545.96,-46.6 535.96,-43.1 535.96,-50.1"></polygon>
</g>
</g>
</svg>